<?xml version="1.0" encoding="UTF-8" standalone="no"?>
<!-- Created with Inkscape (http://www.inkscape.org/) -->

<svg
   width="32"
   height="32"
   viewBox="0 0 32 32"
   version="1.1"
   id="svg1"
   xml:space="preserve"
   xmlns="http://www.w3.org/2000/svg"
   xmlns:svg="http://www.w3.org/2000/svg"><defs
     id="defs1" /><g
     id="layer1"><g
       style="fill:none"
       id="g1"
       transform="matrix(0.6426645,0,0,0.6426645,-3.3102876,-3.235949)"><rect
         x="15.8579"
         y="5.5050998"
         width="40"
         height="40"
         transform="rotate(15,15.8579,5.5051)"
         fill="#00a2ff"
         id="rect1" /><rect
         x="40.643799"
         y="17.3228"
         width="8"
         height="8"
         transform="rotate(15,40.6438,17.3228)"
         fill="#ffffff"
         id="rect2" /><path
         d="m 13.2989,39.8636 4.8815,1.308 -0.2976,1.1108 -6.2469,-1.6739 2.7601,-10.3007 1.3654,0.3659 z m 10.5455,3.2048 C 23.1745,43.5309 22.3467,43.6301 21.361,43.366 20.5451,43.1474 19.9857,42.7447 19.6829,42.1581 19.386,41.568 19.3597,40.8077 19.604,39.8773 l 1.3345,-4.9805 1.3088,0.3507 -1.325,4.9451 c -0.3109,1.1603 0.0053,1.8668 0.9486,2.1195 0.9998,0.268 1.7647,0.0736 2.2945,-0.5832 l 1.4919,-5.5677 1.3088,0.3507 -2.0511,7.6547 -1.2451,-0.3336 z m 7.7915,2.8991 c -0.035,-0.1711 -0.0243,-0.4564 0.0322,-0.8558 -0.7778,0.469 -1.5888,0.5904 -2.433,0.3641 -0.7546,-0.2022 -1.318,-0.5806 -1.69,-1.1352 -0.3661,-0.5581 -0.4613,-1.165 -0.2856,-1.8206 0.2135,-0.797 0.6809,-1.334 1.4022,-1.6109 0.7272,-0.2803 1.6403,-0.2732 2.7392,0.0212 l 1.2734,0.3413 0.1612,-0.6014 c 0.1225,-0.4575 0.0831,-0.8573 -0.1184,-1.1994 -0.2003,-0.3469 -0.5669,-0.5917 -1.0999,-0.7345 -0.4669,-0.1251 -0.89,-0.1121 -1.2691,0.039 -0.3792,0.1512 -0.6137,0.3942 -0.7034,0.7291 l -1.3159,-0.3526 c 0.1024,-0.3821 0.3354,-0.7139 0.699,-0.9956 0.3696,-0.2852 0.8133,-0.4696 1.3311,-0.5533 0.5225,-0.0824 1.0621,-0.049 1.6186,0.1001 0.882,0.2363 1.5135,0.6431 1.8947,1.2204 0.3824,0.5726 0.4794,1.2482 0.291,2.0268 l -0.944,3.5231 c -0.1883,0.7028 -0.2485,1.2857 -0.1804,1.7488 l -0.0304,0.1132 z M 29.7313,44.388 c 0.4103,0.11 0.8279,0.1081 1.2526,-0.0056 0.4248,-0.1136 0.7652,-0.3181 1.0213,-0.6135 l 0.4208,-1.5706 -1.0258,-0.2748 c -1.6036,-0.4297 -2.5312,-0.1753 -2.7826,0.7633 -0.11,0.4103 -0.0592,0.7677 0.1525,1.0721 0.2116,0.3044 0.532,0.5141 0.9612,0.6291 z m 9.9886,2.9343 c -0.6698,0.4625 -1.4976,0.5616 -2.4834,0.2975 -0.8159,-0.2186 -1.3753,-0.6212 -1.6781,-1.2079 -0.2969,-0.5901 -0.3232,-1.3503 -0.0789,-2.2807 l 1.3345,-4.9806 1.3088,0.3507 -1.325,4.9452 c -0.3109,1.1602 0.0053,1.8667 0.9486,2.1195 0.9999,0.2679 1.7647,0.0735 2.2945,-0.5833 l 1.4919,-5.5677 1.3088,0.3507 -2.0511,7.6548 -1.2451,-0.3337 z"
         fill="#ffffff"
         id="path2" /></g><g
       style="fill:#ffffff"
       id="g2"
       transform="matrix(0.15570593,0,0,0.15570593,-44.665418,-29.221292)"><path
         d="m 313.33,263.33 v -69 h 6.34 v 69 z M 325.67,207 v -6.33 h 25 V 207 Z m 12.66,12.33 v -6 h 25 v 6 z m 0,12.67 v -6.33 h 25 V 232 Z m 0,12.33 v -6 h 25 v 6 z M 325.67,257 v -6.33 h 25 V 257 Z m 44,-68.67 h -75 l -6.34,6 v 31.34 h 6.34 v -31.34 h 75 v 69 h -75 v -37.66 h -6.34 v 37.66 l 6.34,6 h 75 l 6,-6 v -69 z"
         id="path1" /></g></g></svg>
